<svg id="Layer_1" data-name="Layer 1" xmlns="http://www.w3.org/2000/svg" xmlns:xlink="http://www.w3.org/1999/xlink" viewBox="0 0 225.19 47.37"><defs><mask id="mask" x="181.27" y="37.6" width="6.15" height="9.77" maskUnits="userSpaceOnUse"><g transform="translate(-0.87 -0.08)"><g id="mask-2"><polygon id="path-1" points="182.13 47.45 188.29 47.45 188.29 37.68 182.13 37.68 182.13 47.45" style="fill:#fff"/></g></g></mask></defs><title>N logo</title><g id="Page-1"><g id="Desktop-HD-Home-Contacts-Copy-3"><g id="Nav-bar"><g id="Menu-hover"><g id="Nav-bar-2" data-name="Nav-bar"><g id="Logo"><path id="Fill-1" d="M39.09,35l.82-.11v2.26h2v.77h-2l0,6.2c0,1.79.53,2.14,2.09,2v.72c-2.2.2-2.92-.6-2.91-2.74Z" transform="translate(-0.87 -0.08)" style="fill:#008583"/><path id="Fill-3" d="M49.61,41.42v-.66c0-1.84-.32-3-2.22-3s-2.25.88-2.26,2.9v.7Zm.6,2.81c0,1.74-.9,2.65-2.85,2.65s-3-1-3-3.57V40.73c0-2.63,1-3.62,3.05-3.61s2.95,1.11,2.94,3.64v1.43l-5.2,0v1.08c0,2,.45,2.89,2.24,2.9s2.1-.78,2.11-1.91Z" transform="translate(-0.87 -0.08)" style="fill:#008583"/><path id="Fill-5" d="M55.68,46.88c-2,.12-2.36-.58-2.35-2.72l0-10h.82l0,10c0,1.69.19,1.92,1.54,1.93Z" transform="translate(-0.87 -0.08)" style="fill:#008583"/><path id="Fill-7" d="M63.31,41.48v-.66c0-1.84-.32-3-2.22-3s-2.25.88-2.26,2.9v.71Zm.59,2.81c0,1.74-.9,2.65-2.85,2.65s-3-1-3-3.57V40.78c0-2.63,1-3.62,3.05-3.61S64,38.28,64,40.81v1.43l-5.2,0V43.3c0,2,.45,2.89,2.24,2.9s2.1-.78,2.11-1.91Z" transform="translate(-0.87 -0.08)" style="fill:#008583"/><path id="Fill-9" d="M72.72,44.08c0,2-1,3-3,3s-3-1-3-3.64V40.85c0-2.66,1-3.59,3.12-3.58s2.8.95,2.88,2.77h-.77c-.06-1.18-.45-2-2.11-2s-2.28.79-2.29,2.81v2.49c0,2,.38,2.87,2.2,2.88s2.19-.8,2.22-2.16Z" transform="translate(-0.87 -0.08)" style="fill:#008583"/><path id="Fill-11" d="M80.52,43.45V40.91c0-2.07-.32-2.86-2.2-2.86s-2.22.79-2.23,2.81V43.4c0,2.07.32,2.91,2.2,2.91s2.22-.84,2.23-2.86m-5.25,0V40.84c0-2.71,1-3.57,3.05-3.56s3,.82,3,3.64v2.58c0,2.66-1,3.59-3.05,3.58s-3-.82-3-3.61" transform="translate(-0.87 -0.08)" style="fill:#008583"/><path id="Fill-13" d="M84.38,37.45h.75l.08.77a2.72,2.72,0,0,1,2.37-.94,2.53,2.53,0,0,1,2.57,1.42,2.9,2.9,0,0,1,2.76-1.4c2.35,0,2.93,1.26,2.92,3.52l0,6.2H95l0-6.22c0-2-.38-2.74-2.19-2.75s-2.32,1.11-2.32,2.48l0,6.47h-.82l0-6.22C89.69,39,89.3,38,87.5,38s-2.3.83-2.31,2.17l0,6.78h-.82Z" transform="translate(-0.87 -0.08)" style="fill:#008583"/><path id="Fill-15" d="M99.26,37.51H100l.08.77a2.71,2.71,0,0,1,2.37-.94A2.53,2.53,0,0,1,105,38.76a2.91,2.91,0,0,1,2.76-1.4c2.35,0,2.93,1.26,2.92,3.52l0,6.2h-.82l0-6.22c0-2-.38-2.74-2.19-2.75s-2.32,1.11-2.32,2.48l0,6.47h-.82l0-6.22c0-1.79-.38-2.74-2.19-2.75s-2.3.83-2.31,2.17L100,47h-.82Z" transform="translate(-0.87 -0.08)" style="fill:#008583"/><path id="Fill-17" d="M119.39,47.13l-.06-1a2.68,2.68,0,0,1-2.42,1.19c-2.25,0-2.93-1-2.92-3.51l0-6.19h.82l0,6.19c0,2.13.46,2.78,2.19,2.78a2.13,2.13,0,0,0,2.31-2.29l0-6.66h.82l0,9.53Z" transform="translate(-0.87 -0.08)" style="fill:#008583"/><path id="Fill-19" d="M124.31,37.61l.06,1a2.68,2.68,0,0,1,2.42-1.19c2.25,0,2.93,1,2.92,3.51l0,6.22h-.82l0-6.22c0-2.13-.47-2.78-2.19-2.78a2.13,2.13,0,0,0-2.31,2.29l0,6.7h-.82l0-9.54Z" transform="translate(-0.87 -0.08)" style="fill:#008583"/><path id="Fill-21" d="M133.87,47.19h-.8l0-9.68h.8Zm.23-12.11a.61.61,0,0,1-1.21,0,.61.61,0,0,1,1.21,0Z" transform="translate(-0.87 -0.08)" style="fill:#008583"/><path id="Fill-23" d="M142.9,44.37c0,2-1,3-3,3s-3-1-3-3.64V41.14c0-2.66,1-3.59,3.12-3.58s2.8.95,2.88,2.77h-.77c-.06-1.18-.45-2-2.11-2s-2.28.79-2.29,2.81v2.49c0,2,.38,2.87,2.2,2.88s2.19-.8,2.22-2.16Z" transform="translate(-0.87 -0.08)" style="fill:#008583"/><path id="Fill-25" d="M150.75,43c-3.13-.32-4.6.15-4.6,1.82,0,1.23.7,1.76,2.14,1.76a2.3,2.3,0,0,0,2.45-2.35Zm.08,4.28V46A2.89,2.89,0,0,1,148,47.33c-1.57,0-2.67-.73-2.66-2.55,0-2.38,2.06-2.86,5.43-2.59V40.81c0-1.71-.56-2.43-2.07-2.44s-2.09.42-2.09,2.24h-.79c0-2,.82-3,2.88-3s2.87.93,2.86,3.16l0,6.47Z" transform="translate(-0.87 -0.08)" style="fill:#008583"/><path id="Fill-27" d="M154.64,35.44l.82-.11v2.26h2v.77h-2l0,6.2c0,1.79.53,2.14,2.09,2v.72c-2.2.2-2.92-.6-2.91-2.74Z" transform="translate(-0.87 -0.08)" style="fill:#008583"/><path id="Fill-29" d="M161.07,47.3h-.8l0-9.68h.8Zm.23-12.11a.61.61,0,0,1-1.21,0,.61.61,0,0,1,1.21,0Z" transform="translate(-0.87 -0.08)" style="fill:#008583"/><path id="Fill-31" d="M169.34,43.82V41.28c0-2.07-.32-2.86-2.2-2.87s-2.22.79-2.23,2.81v2.54c0,2.07.32,2.91,2.2,2.91s2.22-.84,2.23-2.86m-5.25,0V41.21c0-2.71,1-3.57,3.05-3.57s3,.82,3,3.64v2.58c0,2.66-1,3.59-3.05,3.58s-3-.82-3-3.61" transform="translate(-0.87 -0.08)" style="fill:#008583"/><path id="Fill-33" d="M174,37.82l.06,1a2.67,2.67,0,0,1,2.42-1.19c2.25,0,2.93,1,2.92,3.51l0,6.22h-.82l0-6.22c0-2.13-.47-2.78-2.19-2.78a2.13,2.13,0,0,0-2.31,2.29l0,6.7h-.82l0-9.53Z" transform="translate(-0.87 -0.08)" style="fill:#008583"/><g id="Group-37"><g style="mask:url(#mask)"><path id="Fill-35" d="M183,44.71c0,1.12.57,1.94,2.26,1.95,1.48,0,2.22-.71,2.22-1.94,0-1.74-1.37-1.78-2.72-2s-2.54-.49-2.53-2.52c0-1.58,1-2.56,3-2.55s2.9,1,2.89,2.56h-.8c0-1.18-.62-1.78-2.08-1.78s-2.12.68-2.12,1.76c0,1.66,1.14,1.68,2.37,1.85,1.39.2,2.87.5,2.86,2.64,0,1.68-1,2.75-3.08,2.74-1.87,0-3.08-.75-3.07-2.74Z" transform="translate(-0.87 -0.08)" style="fill:#008583"/></g></g><path id="Fill-38" d="M88.63.78V5a.42.42,0,0,1-.42.42H80.59V30.2a.42.42,0,0,1-.42.42H75.63a.42.42,0,0,1-.42-.42V5.41H67.59A.42.42,0,0,1,67.17,5V1.49a.42.42,0,0,1,.42-.41C73.09.74,88.22.36,88.22.36a.41.41,0,0,1,.41.42" transform="translate(-0.87 -0.08)" style="fill:#008583"/><path id="Fill-40" d="M56.51,1.62c-4.75.28-12.5.75-19,1.3a.43.43,0,0,0-.42.41V30.2a.42.42,0,0,0,.42.42h19a.42.42,0,0,0,.42-.42V25.7a.41.41,0,0,0-.42-.42H42.41V19.4H53.19a.42.42,0,0,0,.42-.42v-4.5a.42.42,0,0,0-.42-.42H42.41V7l14.1-.73a.42.42,0,0,0,.42-.42V2a.41.41,0,0,0-.42-.42" transform="translate(-0.87 -0.08)" style="fill:#008583"/><path id="Fill-42" d="M118.29.08c-4.77,0-14.19,0-19,.09a.42.42,0,0,0-.42.42V30.2a.42.42,0,0,0,.42.42h19a.42.42,0,0,0,.42-.42V25.7a.41.41,0,0,0-.42-.42h-14.1V19.4H115a.42.42,0,0,0,.42-.42v-4.5a.42.42,0,0,0-.42-.42H104.19V5.47h14.1a.41.41,0,0,0,.42-.42V.49a.41.41,0,0,0-.42-.41" transform="translate(-0.87 -0.08)" style="fill:#008583"/><path id="Fill-44" d="M25.21,4c-1.14.1-4.44.48-4.44.48a.42.42,0,0,0-.42.42v14.8L1.56,7.15a.41.41,0,0,0-.7.31V30.2a.42.42,0,0,0,.41.42H5.73a.42.42,0,0,0,.42-.42V17L24.91,30.5a.41.41,0,0,0,.29.11.39.39,0,0,0,.16,0,.41.41,0,0,0,.25-.38l0-25.76A.4.4,0,0,0,25.21,4" transform="translate(-0.87 -0.08)" style="fill:#008583"/><path id="Fill-46" d="M141.38,17.87h-3.08V5.59s2.13,0,3.08,0a9.67,9.67,0,0,1,2.67.45,6.12,6.12,0,0,1,4.46,6c0,4.86-5.25,5.85-7.14,5.85M154.82,30l-6.7-8.53c1.49-1.07,5.79-2.62,5.68-10.22C153.71,5.12,148.32,1,141.38.49,137.66.21,133.23.3,133.23.3a.42.42,0,0,0-.42.42V30.27a.42.42,0,0,0,.42.42h4.65a.42.42,0,0,0,.41-.42V23.34h4.25l5.71,7.18a.41.41,0,0,0,.32.16h5.91a.42.42,0,0,0,.33-.67" transform="translate(-0.87 -0.08)" style="fill:#008583"/><path id="Fill-48" d="M176.86,17.87h-3.08V7s2.23,0,3,.09a16.91,16.91,0,0,1,2.52.39C182,8.23,184,9.8,184,12.6c-.12,4.86-5.22,5.27-7.11,5.27M190.3,30l-6.7-8.53c1.49-1.07,6.08-2.74,5.68-9.78-.17-2.91-2.57-8.65-11.15-9.58-2.27-.25-5.9-.5-9.41-.6a.41.41,0,0,0-.41.42V30.27a.42.42,0,0,0,.41.42h4.65a.42.42,0,0,0,.42-.42V23.34H178l5.71,7.18a.41.41,0,0,0,.32.16H190a.42.42,0,0,0,.33-.67" transform="translate(-0.87 -0.08)" style="fill:#008583"/><path id="Fill-50" d="M226,30,212.83,5.43a.43.43,0,0,0-.76,0L198.9,30a.42.42,0,0,0,.38.58h4.78a.43.43,0,0,0,.38-.25c1.92-4,8-16.4,8-16.4l4.27,8.92c1.8.2,4.26,1.65,4.76,3.87a4.4,4.4,0,0,1-.82,3.87h5A.41.41,0,0,0,226,30" transform="translate(-0.87 -0.08)" style="fill:#008583"/><path id="Fill-52" d="M220.21,27.15a3.46,3.46,0,1,1-3.46-3.46,3.46,3.46,0,0,1,3.46,3.46" transform="translate(-0.87 -0.08)" style="fill:#78ccd0"/></g></g></g></g></g></g></svg>